<mxfile host="app.diagrams.net" agent="Mozilla/5.0 (Windows NT 10.0; Win64; x64) AppleWebKit/537.36 (KHTML, like Gecko) Chrome/128.0.0.0 Safari/537.36" version="24.7.8">
  <diagram name="Página-1" id="O0SCB5UXBAoEZHSxgwkn">
    <mxGraphModel dx="2514" dy="918" grid="1" gridSize="10" guides="1" tooltips="1" connect="1" arrows="1" fold="1" page="1" pageScale="1" pageWidth="827" pageHeight="1169" math="0" shadow="0">
      <root>
        <mxCell id="0" />
        <mxCell id="1" parent="0" />
        <mxCell id="YYEzAmgfptnNB4qbXmZl-253" value="" style="html=1;whiteSpace=wrap;" vertex="1" parent="1">
          <mxGeometry x="-60" y="117.5" width="1013" height="785" as="geometry" />
        </mxCell>
        <mxCell id="YYEzAmgfptnNB4qbXmZl-204" value="" style="ellipse;html=1;shape=startState;fillColor=#000000;strokeColor=#ff0000;" vertex="1" parent="1">
          <mxGeometry x="181" y="160" width="30" height="30" as="geometry" />
        </mxCell>
        <mxCell id="YYEzAmgfptnNB4qbXmZl-205" value="" style="edgeStyle=orthogonalEdgeStyle;html=1;verticalAlign=bottom;endArrow=open;endSize=8;strokeColor=#ff0000;rounded=0;" edge="1" parent="1" source="YYEzAmgfptnNB4qbXmZl-204">
          <mxGeometry relative="1" as="geometry">
            <mxPoint x="196" y="250" as="targetPoint" />
          </mxGeometry>
        </mxCell>
        <mxCell id="YYEzAmgfptnNB4qbXmZl-206" value="" style="edgeStyle=orthogonalEdgeStyle;rounded=0;orthogonalLoop=1;jettySize=auto;html=1;" edge="1" parent="1" source="YYEzAmgfptnNB4qbXmZl-207" target="YYEzAmgfptnNB4qbXmZl-210">
          <mxGeometry relative="1" as="geometry" />
        </mxCell>
        <mxCell id="YYEzAmgfptnNB4qbXmZl-207" value="Inserir login" style="html=1;whiteSpace=wrap;" vertex="1" parent="1">
          <mxGeometry x="141" y="250" width="110" height="50" as="geometry" />
        </mxCell>
        <mxCell id="YYEzAmgfptnNB4qbXmZl-208" value="" style="edgeStyle=orthogonalEdgeStyle;rounded=0;orthogonalLoop=1;jettySize=auto;html=1;" edge="1" parent="1" source="YYEzAmgfptnNB4qbXmZl-210" target="YYEzAmgfptnNB4qbXmZl-212">
          <mxGeometry relative="1" as="geometry" />
        </mxCell>
        <mxCell id="YYEzAmgfptnNB4qbXmZl-209" value="" style="edgeStyle=orthogonalEdgeStyle;rounded=0;orthogonalLoop=1;jettySize=auto;html=1;" edge="1" parent="1" source="YYEzAmgfptnNB4qbXmZl-210" target="YYEzAmgfptnNB4qbXmZl-215">
          <mxGeometry relative="1" as="geometry" />
        </mxCell>
        <mxCell id="YYEzAmgfptnNB4qbXmZl-210" value="Login e senha corretos?" style="rhombus;whiteSpace=wrap;html=1;" vertex="1" parent="1">
          <mxGeometry x="143" y="360" width="105" height="95" as="geometry" />
        </mxCell>
        <mxCell id="YYEzAmgfptnNB4qbXmZl-211" style="edgeStyle=orthogonalEdgeStyle;rounded=0;orthogonalLoop=1;jettySize=auto;html=1;" edge="1" parent="1" source="YYEzAmgfptnNB4qbXmZl-212" target="YYEzAmgfptnNB4qbXmZl-233">
          <mxGeometry relative="1" as="geometry">
            <Array as="points">
              <mxPoint x="30" y="700" />
            </Array>
          </mxGeometry>
        </mxCell>
        <mxCell id="YYEzAmgfptnNB4qbXmZl-212" value="Redirecionar para a Tela principal" style="whiteSpace=wrap;html=1;" vertex="1" parent="1">
          <mxGeometry x="-30" y="480" width="120" height="60" as="geometry" />
        </mxCell>
        <mxCell id="YYEzAmgfptnNB4qbXmZl-213" value="&lt;div&gt;Se sim&lt;/div&gt;" style="text;html=1;align=center;verticalAlign=middle;resizable=0;points=[];autosize=1;strokeColor=none;fillColor=none;" vertex="1" parent="1">
          <mxGeometry x="91" y="379" width="60" height="30" as="geometry" />
        </mxCell>
        <mxCell id="YYEzAmgfptnNB4qbXmZl-214" value="" style="edgeStyle=orthogonalEdgeStyle;rounded=0;orthogonalLoop=1;jettySize=auto;html=1;" edge="1" parent="1" source="YYEzAmgfptnNB4qbXmZl-215" target="YYEzAmgfptnNB4qbXmZl-219">
          <mxGeometry relative="1" as="geometry" />
        </mxCell>
        <mxCell id="YYEzAmgfptnNB4qbXmZl-215" value="Exibir mensagem de erro" style="whiteSpace=wrap;html=1;" vertex="1" parent="1">
          <mxGeometry x="317" y="480" width="120" height="60" as="geometry" />
        </mxCell>
        <mxCell id="YYEzAmgfptnNB4qbXmZl-216" value="" style="ellipse;html=1;shape=endState;fillColor=#000000;strokeColor=#ff0000;" vertex="1" parent="1">
          <mxGeometry x="412" y="809" width="30" height="30" as="geometry" />
        </mxCell>
        <mxCell id="YYEzAmgfptnNB4qbXmZl-217" value="" style="edgeStyle=orthogonalEdgeStyle;rounded=0;orthogonalLoop=1;jettySize=auto;html=1;" edge="1" parent="1" source="YYEzAmgfptnNB4qbXmZl-219" target="YYEzAmgfptnNB4qbXmZl-221">
          <mxGeometry relative="1" as="geometry" />
        </mxCell>
        <mxCell id="YYEzAmgfptnNB4qbXmZl-218" style="edgeStyle=orthogonalEdgeStyle;rounded=0;orthogonalLoop=1;jettySize=auto;html=1;" edge="1" parent="1" source="YYEzAmgfptnNB4qbXmZl-219" target="YYEzAmgfptnNB4qbXmZl-227">
          <mxGeometry relative="1" as="geometry">
            <mxPoint x="549.5" y="380" as="targetPoint" />
          </mxGeometry>
        </mxCell>
        <mxCell id="YYEzAmgfptnNB4qbXmZl-219" value="Recuperar senha?" style="rhombus;whiteSpace=wrap;html=1;" vertex="1" parent="1">
          <mxGeometry x="497" y="462.5" width="105" height="95" as="geometry" />
        </mxCell>
        <mxCell id="YYEzAmgfptnNB4qbXmZl-220" style="edgeStyle=orthogonalEdgeStyle;rounded=0;orthogonalLoop=1;jettySize=auto;html=1;" edge="1" parent="1" source="YYEzAmgfptnNB4qbXmZl-221" target="YYEzAmgfptnNB4qbXmZl-233">
          <mxGeometry relative="1" as="geometry">
            <Array as="points">
              <mxPoint x="734" y="590" />
              <mxPoint x="427" y="590" />
            </Array>
          </mxGeometry>
        </mxCell>
        <mxCell id="YYEzAmgfptnNB4qbXmZl-221" value="Redirecionar para a tela de recuperação" style="whiteSpace=wrap;html=1;" vertex="1" parent="1">
          <mxGeometry x="674.5" y="480" width="120" height="60" as="geometry" />
        </mxCell>
        <mxCell id="YYEzAmgfptnNB4qbXmZl-222" value="Se sim" style="text;html=1;align=center;verticalAlign=middle;resizable=0;points=[];autosize=1;strokeColor=none;fillColor=none;" vertex="1" parent="1">
          <mxGeometry x="587" y="480" width="60" height="30" as="geometry" />
        </mxCell>
        <mxCell id="YYEzAmgfptnNB4qbXmZl-223" value="Se não" style="text;html=1;align=center;verticalAlign=middle;resizable=0;points=[];autosize=1;strokeColor=none;fillColor=none;" vertex="1" parent="1">
          <mxGeometry x="231" y="380" width="60" height="30" as="geometry" />
        </mxCell>
        <mxCell id="YYEzAmgfptnNB4qbXmZl-224" value="Se não" style="text;html=1;align=center;verticalAlign=middle;resizable=0;points=[];autosize=1;strokeColor=none;fillColor=none;rotation=0;" vertex="1" parent="1">
          <mxGeometry x="497" y="432.5" width="60" height="30" as="geometry" />
        </mxCell>
        <mxCell id="YYEzAmgfptnNB4qbXmZl-225" style="edgeStyle=orthogonalEdgeStyle;rounded=0;orthogonalLoop=1;jettySize=auto;html=1;" edge="1" parent="1" source="YYEzAmgfptnNB4qbXmZl-227" target="YYEzAmgfptnNB4qbXmZl-207">
          <mxGeometry relative="1" as="geometry" />
        </mxCell>
        <mxCell id="YYEzAmgfptnNB4qbXmZl-226" value="" style="edgeStyle=orthogonalEdgeStyle;rounded=0;orthogonalLoop=1;jettySize=auto;html=1;" edge="1" parent="1" source="YYEzAmgfptnNB4qbXmZl-227" target="YYEzAmgfptnNB4qbXmZl-230">
          <mxGeometry relative="1" as="geometry" />
        </mxCell>
        <mxCell id="YYEzAmgfptnNB4qbXmZl-227" value="Cadastar?" style="rhombus;whiteSpace=wrap;html=1;" vertex="1" parent="1">
          <mxGeometry x="497" y="227.5" width="105" height="95" as="geometry" />
        </mxCell>
        <mxCell id="YYEzAmgfptnNB4qbXmZl-228" value="Se não" style="text;html=1;align=center;verticalAlign=middle;resizable=0;points=[];autosize=1;strokeColor=none;fillColor=none;" vertex="1" parent="1">
          <mxGeometry x="447" y="250" width="60" height="30" as="geometry" />
        </mxCell>
        <mxCell id="YYEzAmgfptnNB4qbXmZl-229" style="edgeStyle=orthogonalEdgeStyle;rounded=0;orthogonalLoop=1;jettySize=auto;html=1;" edge="1" parent="1" source="YYEzAmgfptnNB4qbXmZl-230" target="YYEzAmgfptnNB4qbXmZl-233">
          <mxGeometry relative="1" as="geometry">
            <Array as="points">
              <mxPoint x="877" y="275" />
              <mxPoint x="877" y="700" />
            </Array>
          </mxGeometry>
        </mxCell>
        <mxCell id="YYEzAmgfptnNB4qbXmZl-230" value="Redirecionar para a tela de cadastro" style="whiteSpace=wrap;html=1;" vertex="1" parent="1">
          <mxGeometry x="674.5" y="245" width="120" height="60" as="geometry" />
        </mxCell>
        <mxCell id="YYEzAmgfptnNB4qbXmZl-231" value="Se sim" style="text;html=1;align=center;verticalAlign=middle;resizable=0;points=[];autosize=1;strokeColor=none;fillColor=none;" vertex="1" parent="1">
          <mxGeometry x="590" y="251" width="60" height="30" as="geometry" />
        </mxCell>
        <mxCell id="YYEzAmgfptnNB4qbXmZl-232" value="" style="edgeStyle=orthogonalEdgeStyle;rounded=0;orthogonalLoop=1;jettySize=auto;html=1;" edge="1" parent="1" source="YYEzAmgfptnNB4qbXmZl-233" target="YYEzAmgfptnNB4qbXmZl-216">
          <mxGeometry relative="1" as="geometry" />
        </mxCell>
        <mxCell id="YYEzAmgfptnNB4qbXmZl-233" value="" style="rhombus;whiteSpace=wrap;html=1;" vertex="1" parent="1">
          <mxGeometry x="387" y="660" width="80" height="80" as="geometry" />
        </mxCell>
      </root>
    </mxGraphModel>
  </diagram>
</mxfile>
